<svg width="79" height="77" viewBox="0 0 79 77" fill="none" xmlns="http://www.w3.org/2000/svg">
<g id="Group">
<g id="Group_2">
<path id="Vector" d="M58.9099 64.45H19.9299V76.98H58.9099V64.45Z" fill="#636363"/>
<path id="Vector_2" d="M59.0399 31.25H19.7899L0.169922 47.85L19.7899 64.45H59.0399L78.6599 47.85L59.0399 31.25Z" fill="#707070"/>
<path id="Vector_3" d="M58.8999 76.98C59.9199 76.85 78.6599 59.61 78.6599 59.61V47.85L59.0399 64.45L58.9099 76.98H58.8999Z" fill="#353535"/>
<path id="Vector_4" d="M19.9299 76.98C18.9099 76.85 0.169922 59.61 0.169922 59.61V47.85L19.7899 64.45L19.9199 76.98H19.9299Z" fill="#919191"/>
</g>
<g id="Group_3">
<path id="Vector_5" d="M58.8898 22.83C57.8298 20.71 55.3198 20.51 55.3198 20.51H24.1898C24.1898 20.51 21.6798 20.7 20.6198 22.83C19.5598 24.95 19.9398 26.85 19.9398 26.85H59.5798C59.5798 26.85 59.9598 24.95 58.8998 22.83H58.8898Z" fill="#424242"/>
<path id="Vector_6" d="M25.1197 22.35H54.3897C57.2497 22.35 59.5797 24.67 59.5797 27.54V47.3C59.5797 51.02 56.5597 54.04 52.8397 54.04H26.6797C22.9597 54.04 19.9397 51.02 19.9397 47.3V27.54C19.9397 24.68 22.2597 22.35 25.1297 22.35H25.1197Z" fill="#919191" stroke="black" stroke-width="0.22" stroke-miterlimit="10"/>
<path id="Vector_7" d="M41.9097 41.73C42.5597 41.14 42.9697 40.3 42.9697 39.36C42.9697 37.58 41.5297 36.14 39.7497 36.14C37.9697 36.14 36.5297 37.58 36.5297 39.36C36.5297 40.3 36.9397 41.14 37.5897 41.73L35.9597 50.3H43.5397L41.9097 41.73Z" fill="black"/>
<path id="Vector_8" d="M44.9897 0.950012H34.5197C29.9297 0.950012 26.1997 4.60001 26.1997 9.10001V20.17C26.1997 21.02 26.9097 21.72 27.7797 21.72H29.7897C30.6597 21.72 31.3697 21.03 31.3697 20.17V10.08C31.3697 8.14999 32.9597 6.59 34.9297 6.59H44.5997C46.5697 6.59 48.1597 8.14999 48.1597 10.08V20.17C48.1597 21.02 48.8697 21.72 49.7397 21.72H51.7497C52.6197 21.72 53.3297 21.03 53.3297 20.17V9.10001C53.3297 4.60001 49.6097 0.950012 45.0097 0.950012H44.9897Z" fill="black"/>
<path id="Vector_9" d="M44.9897 0.179993H34.5197C29.9297 0.179993 26.1997 3.9 26.1997 8.5V19.8C26.1997 20.67 26.9097 21.38 27.7797 21.38H29.7897C30.6597 21.38 31.3697 20.67 31.3697 19.8V9.5C31.3697 7.53 32.9597 5.94 34.9297 5.94H44.5997C46.5697 5.94 48.1597 7.53 48.1597 9.5V19.8C48.1597 20.67 48.8697 21.38 49.7397 21.38H51.7497C52.6197 21.38 53.3297 20.67 53.3297 19.8V8.5C53.3297 3.91 49.6097 0.179993 45.0097 0.179993H44.9897Z" fill="#757575"/>
</g>
</g>
</svg>
