<svg width="34" height="29" viewBox="0 0 34 29" fill="none" xmlns="http://www.w3.org/2000/svg">
<g id="Group">
<path id="Vector" d="M1.61002 17.45L5.71002 13.35L11.1 18.75L27.76 2.09L31.86 6.19L11.1 26.94L1.61002 17.45Z" fill="#179DC1"/>
<path id="Vector_2" d="M27.76 3.26L30.69 6.19L11.1 25.77L2.78001 17.45L5.71001 14.52L11.11 19.92L27.76 3.26ZM27.76 0.919998L26.59 2.09L11.11 17.57L6.89001 13.34L5.72001 12.17L4.55001 13.34L1.62001 16.27L0.450012 17.44L1.62001 18.61L9.94001 26.93L11.11 28.1L12.28 26.93L31.86 7.36L33.03 6.19L31.86 5.02L28.93 2.09L27.76 0.919998Z" fill="#4C4C4C"/>
</g>
</svg>
