<svg width="86" height="85" viewBox="0 0 86 85" fill="none" xmlns="http://www.w3.org/2000/svg">
<g id="Group">
<g id="Group_2">
<path id="Vector" d="M59.3899 71.51H20.4099V84.04H59.3899V71.51Z" fill="#CE6E05"/>
<path id="Vector_2" d="M59.5199 38.3H20.2799L0.649902 54.9L20.2799 71.51H59.5199L79.1499 54.9L59.5199 38.3Z" fill="#D87A09"/>
<path id="Vector_3" d="M59.3899 84.03C60.4099 83.9 79.1499 66.66 79.1499 66.66V54.9L59.5299 71.5L59.3999 84.03H59.3899Z" fill="#AF5F08"/>
<path id="Vector_4" d="M20.4099 84.03C19.3899 83.9 0.649902 66.66 0.649902 66.66V54.9L20.2699 71.5L20.3999 84.03H20.4099Z" fill="#EA9436"/>
</g>
<g id="Group_3">
<path id="Vector_5" d="M37.96 62.14L69.4799 46.39L59.39 37.85L37.96 62.14Z" fill="#7C4A13"/>
<path id="Vector_6" d="M73.5899 0.529999L36.8199 37.3L36.6999 37.18L22.0799 22.56L13.6699 30.97L36.6999 54.01L36.8199 54.12L81.9999 8.94L73.5899 0.529999Z" fill="#D87A09"/>
<path id="Vector_7" d="M76.5399 5.91L37.9599 44.49L37.8399 44.37L22.4899 29.02L13.6699 37.85L37.8399 62.02L37.9599 62.14L85.3599 14.73L76.5399 5.91Z" fill="#FAA736"/>
<path id="Vector_8" d="M13.6699 37.85V30.97L22.0799 22.56L22.4899 29.02L13.6699 37.85Z" fill="#EA810F"/>
<path id="Vector_9" d="M76.5398 5.91L73.5898 0.529999L81.9998 8.94L85.3598 14.73L76.5398 5.91Z" fill="#AA671D"/>
</g>
</g>
</svg>
