<svg width="32" height="42" viewBox="0 0 32 42" fill="none" xmlns="http://www.w3.org/2000/svg">
<g id="Layer_1" clip-path="url(#clip0_178_2356)">
<path id="Vector" d="M28.4954 17.3803H26.7976V7.96891C26.7976 3.81786 23.4321 0.440308 19.2958 0.440308H12.957C8.82073 0.440308 5.45521 3.81786 5.45521 7.96891V17.3803H3.75736C1.87575 17.3803 0.347961 18.9108 0.347961 20.8019V37.7365C0.347961 39.6248 1.873 41.1581 3.75736 41.1581H28.4954C30.377 41.1581 31.9048 39.6276 31.9048 37.7365V20.8019C31.9048 18.9136 30.3798 17.3803 28.4954 17.3803ZM16.125 38.8788H12.8774L14.2736 31.5099C13.7195 31.0034 13.3657 30.2822 13.3657 29.4702C13.3657 27.9424 14.6 26.7037 16.1223 26.7037C17.6446 26.7037 18.8789 27.9424 18.8789 29.4702C18.8789 30.2822 18.525 31.0034 17.971 31.5099L19.3671 38.8788H16.1195H16.125ZM22.6833 17.3803H9.56679V7.96891C9.56679 6.09433 11.0863 4.56934 12.9543 4.56934H19.2931C21.161 4.56934 22.6805 6.09433 22.6805 7.96891V17.3803H22.6833Z" fill="#BABABA"/>
</g>
<defs>
<clipPath id="clip0_178_2356">
<rect width="31.5541" height="40.715" fill="white" transform="translate(0.347961 0.440308)"/>
</clipPath>
</defs>
</svg>
