<svg width="49" height="48" viewBox="0 0 49 48" fill="none" xmlns="http://www.w3.org/2000/svg">
<g id="Layer_1" clip-path="url(#clip0_86_1563)">
<path id="Vector" d="M18.8904 28.129V37.042C18.8904 37.1525 18.4753 37.5722 18.335 37.655L14.0935 39.9357L24.2092 45.4525L34.1565 40.0793L34.0948 39.8805L29.5672 37.3237C29.5335 37.2685 29.3596 36.788 29.3596 36.7549V28.1346L37.7753 32.5634V41.9072C37.3264 41.7139 36.7093 41.1396 36.21 41.2721L24.5682 47.6393H23.7772L12.0064 41.2059C11.7371 41.1285 10.8787 41.7636 10.5701 41.9072V32.5634L18.8904 28.1346V28.129Z" fill="#FC982B"/>
<path id="Vector_2" d="M23.0983 10.8829V20.2266L15.0753 15.8419C14.879 15.7315 14.677 15.1571 14.677 14.9804V11.7554L6.35666 16.2837V23.413C7.24872 23.1479 8.87015 21.7342 9.74538 21.9496L17.8076 26.4006L9.45924 30.8129L1.07721 26.3453L4.19102 24.5948L4.27517 15.4277L4.49959 15.0025L14.6882 9.38633C14.8228 9.30349 14.6826 9.22618 14.6826 9.19857V6.45398L23.0983 10.8829Z" fill="#FC982B"/>
<path id="Vector_3" d="M33.5674 6.54785V9.29244L43.4867 14.754C43.7953 14.9694 44.0758 15.2455 44.0477 15.6486L44.0646 24.4954L47.1784 26.3895L38.8244 30.8074L30.5377 26.3895C30.9361 26.0361 31.4691 25.771 31.9404 25.5059C34.1509 24.2634 36.4063 23.0761 38.6617 21.8999C39.4079 21.7784 41.2369 23.1921 41.9943 23.5013V16.2782L33.5786 11.7499V15.3615C33.5786 15.4719 33.1634 15.8916 33.0232 15.9744L25.2583 20.2266V10.8829L33.5786 6.54785H33.5674Z" fill="#FC982B"/>
<path id="Vector_4" d="M8.41569 32.5579V41.9017L0.392728 37.5169C0.230024 37.4286 -0.00561523 36.8929 -0.00561523 36.7493V28.2229L8.41008 32.5579H8.41569Z" fill="#FC982B"/>
<path id="Vector_5" d="M48.25 28.129V37.042C48.25 37.1525 47.8348 37.5722 47.6946 37.655L39.9297 41.9072V32.5634L48.25 28.1346V28.129Z" fill="#FC982B"/>
<path id="Vector_6" d="M15.8552 4.71992C16.0123 4.51008 16.3377 4.35545 16.5733 4.22292C18.6323 3.04666 21.3759 1.36236 23.4854 0.42909C23.9679 0.21372 24.2316 0.158497 24.7309 0.368345L32.4902 4.67575L24.125 9.12121L15.8552 4.71992Z" fill="#FC982B"/>
</g>
<defs>
<clipPath id="clip0_86_1563">
<rect width="48.25" height="47.4035" fill="white" transform="translate(0 0.23584)"/>
</clipPath>
</defs>
</svg>
