<svg width="79" height="87" viewBox="0 0 79 87" fill="none" xmlns="http://www.w3.org/2000/svg">
<g id="Group">
<g id="Group_2">
<path id="Vector" d="M59.09 73.88H20.11V86.41H59.09V73.88Z" fill="#1D776E"/>
<path id="Vector_2" d="M59.23 40.68H19.98L0.349976 57.28L19.98 73.88H59.23L78.85 57.28L59.23 40.68Z" fill="#188983"/>
<path id="Vector_3" d="M59.0901 86.41C60.1101 86.28 78.8501 69.04 78.8501 69.04V57.28L59.2301 73.88L59.1001 86.41H59.0901Z" fill="#0F4F47"/>
<path id="Vector_4" d="M20.11 86.41C19.09 86.28 0.349976 69.04 0.349976 69.04V57.28L19.97 73.88L20.1 86.41H20.11Z" fill="#22A097"/>
</g>
<g id="Group_3">
<path id="Vector_5" d="M56.43 67.89L54.89 70.6L8.90002 61.08L10.96 58L56.43 67.89Z" fill="#0F4F47"/>
<path id="Vector_6" d="M52.87 69.38L56.43 67.89L60.86 63.33L69.63 49.48L59.23 40.68L22.71 42.16L52.87 69.38Z" fill="#0F4F47"/>
<path id="Vector_7" d="M61.7 62.26L16.55 53.56V0.139999L61.7 8.84V62.26Z" fill="#0B7F9E"/>
<path id="Vector_8" d="M9.68005 7.08L16.5501 0.139999L54.8301 7.50999L21.8801 13.39L9.68005 7.08Z" fill="#0B7F9E"/>
<path id="Vector_9" d="M18.51 3.2L13.96 7.99001L16.9 8.47V52.87L45.33 58.34L54.83 65.12L59.77 59.4L59.89 11.19L18.51 3.2Z" fill="white"/>
<path id="Vector_10" d="M14.82 7.11L56.16 15.5L54.84 16.69L14.03 7.94L14.82 7.11Z" fill="#4F5957"/>
<path id="Vector_11" d="M54.8401 16.69C54.8301 15.78 59.8901 11.19 59.8901 11.19L59.7501 59.88L54.8301 65.11V16.68L54.8401 16.69Z" fill="#A3AFAD"/>
<path id="Vector_12" d="M55.73 15.41L55.85 64.05L54.41 65.47L53.78 16.48L55.73 15.41Z" fill="#4F5957"/>
<path id="Vector_13" d="M54.8301 69.2L9.68005 60.5V7.08L54.8301 15.78V69.2Z" fill="#62B9D3"/>
<path id="Vector_14" d="M23.92 28.34V47.94C23.92 48.55 24.59 48.93 25.12 48.61L40.21 39.45C40.7 39.15 40.72 38.45 40.25 38.13L25.16 27.68C24.64 27.32 23.92 27.69 23.92 28.33V28.34Z" fill="#031E19"/>
</g>
<path id="Vector_15" d="M56.4299 19.13C56.5599 33.31 56.5699 47.48 56.4299 61.66C56.2899 47.48 56.2999 33.31 56.4299 19.13Z" fill="#7D8E8B"/>
<path id="Vector_16" d="M57.78 31.48C57.91 41.81 57.92 52.13 57.78 62.46C57.64 52.13 57.65 41.81 57.78 31.48Z" fill="#7D8E8B"/>
<path id="Vector_17" d="M21 4.87C32.64 6.98 44.26 9.23001 55.85 11.6C44.21 9.49001 32.59 7.24 21 4.87Z" fill="#E5E5E5"/>
<path id="Vector_18" d="M24.98 7.17999C34.52 8.88999 44.04 10.72 53.53 12.7C43.99 10.99 34.47 9.14999 24.98 7.17999Z" fill="#E5E5E5"/>
</g>
</svg>
