<svg width="37" height="33" viewBox="0 0 37 33" fill="none" xmlns="http://www.w3.org/2000/svg">
<g clip-path="url(#clip0_1_1408)">
<path d="M14.68 31.6C22.1027 31.6 28.12 25.5827 28.12 18.16C28.12 10.7373 22.1027 4.72 14.68 4.72C7.25728 4.72 1.23999 10.7373 1.23999 18.16C1.23999 25.5827 7.25728 31.6 14.68 31.6Z" fill="#4C4C4C" stroke="#C9C9C9" stroke-width="2.48" stroke-miterlimit="10"/>
<path d="M4.61002 17.45L8.71002 13.35L14.1 18.75L30.76 2.09L34.86 6.19L14.1 26.94L4.61002 17.45Z" fill="#179DC1"/>
<path d="M30.76 3.26L33.69 6.19L14.1 25.77L5.78001 17.45L8.71001 14.52L14.11 19.92L30.76 3.26ZM30.76 0.919998L29.59 2.09L14.11 17.57L9.89001 13.34L8.72001 12.17L7.55001 13.34L4.62001 16.27L3.45001 17.44L4.62001 18.61L12.94 26.93L14.11 28.1L15.28 26.93L34.86 7.36L36.03 6.19L34.86 5.02L31.93 2.09L30.76 0.919998Z" fill="#4C4C4C"/>
</g>
<defs>
<clipPath id="clip0_1_1408">
<rect width="36.03" height="31.92" fill="white" transform="translate(0 0.919998)"/>
</clipPath>
</defs>
</svg>
