<svg width="133" height="192" viewBox="0 0 133 192" fill="none" xmlns="http://www.w3.org/2000/svg">
<g id="Group">
<g id="Group_2" opacity="0.28">
<g id="Group_3">
<path id="Vector" d="M56.9401 117.66C56.9401 117.66 60.4401 112.93 58.0701 103.1C58.0701 103.1 58.1301 100.48 58.5401 97.44C53.1801 95.02 46.3801 92.46 42.2901 90.97C42.2901 91.07 42.2901 91.17 42.2901 91.27C42.5401 106.28 27.6201 126.85 13.8301 136.46C13.8301 136.46 44.5001 151.92 56.9401 117.67V117.66Z" fill="#84A7AD"/>
<path id="Vector_2" d="M56.89 117.64C59.44 113.3 59.03 107.87 57.94 103.14C57.98 101.23 58.14 99.32 58.37 97.43L58.47 97.61C53.14 95.26 47.68 93.21 42.2 91.23L42.56 90.98C42.66 95.65 41.4301 100.25 39.7401 104.54C34.3601 117.35 25.33 128.66 14.14 136.89L14.08 135.99C18.08 137.81 22.49 138.94 26.9 139.3C31.31 139.64 35.83 139.12 39.92 137.39C48.34 133.91 53.7201 125.89 56.91 117.63L56.89 117.64ZM56.9901 117.69C54.16 126.17 48.79 134.6 40.26 138.22C36.05 140.06 31.37 140.72 26.81 140.37C21.94 140.01 17.19 138.7 12.79 136.55C24.27 128.54 33.6101 117.17 39.1301 104.3C40.8901 99.95 42.15 95.32 42.0201 90.59C47.6101 92.67 53.18 94.83 58.61 97.3L58.73 97.35C58.47 99.2 58.2901 101.35 58.2101 103.08C59.2601 107.86 59.6101 113.35 56.9901 117.69Z" fill="black"/>
</g>
<g id="Group_4">
<path id="Vector_3" d="M100.21 46.3C68.3302 30.03 42.5202 75.76 42.4302 91.08C46.5202 92.57 53.3202 95.13 58.6802 97.55C59.1602 93.96 60.1102 89.81 62.0102 88.73L111.99 107.94L127.82 95.76C127.82 95.76 132.31 62.67 100.22 46.29L100.21 46.3Z" fill="#84A7AD"/>
<path id="Vector_4" d="M100.19 46.35C75.4001 33.54 52.8201 59.47 45.0001 80.92C43.8201 84.2 42.8501 87.62 42.7601 91.08L42.5501 90.78C48.0301 92.78 53.4901 94.85 58.8401 97.22L58.3301 97.51C58.6701 95.09 59.0701 92.63 60.1501 90.39C60.5401 89.6 61.1201 88.79 61.9801 88.3L62.1601 88.37L112.19 107.46L111.68 107.53L127.51 95.35L127.31 95.69C127.82 90.8 127.46 85.74 126.51 80.87C123.79 65.86 113.8 53.13 100.21 46.35H100.19ZM100.24 46.26C113.89 52.91 124.35 65.72 127.34 80.7C128.38 85.75 128.82 90.89 128.31 96.04L128.13 96.18L112.31 108.36L112.08 108.54C111.92 108.5 62.0901 89.17 61.8701 89.1L62.2001 89.08C61.6201 89.43 61.1701 90.06 60.8201 90.74C59.7201 93.02 59.3301 95.59 58.9801 98.09C53.5401 95.62 47.9401 93.46 42.3201 91.38L42.1001 91.3V91.08C42.2201 87.48 43.2301 84.04 44.4301 80.72C52.3901 59.2 75.4301 33.35 100.22 46.26H100.24Z" fill="black"/>
</g>
<g id="Group_5">
<path id="Vector_5" d="M73.6601 73.66C73.6601 73.66 111.5 88.58 121.59 94.05C121.59 94.05 129.46 97.27 132.41 96.91C132.41 96.91 126.11 114.51 127.04 118.25L118.59 114.79L73.3501 93.59L73.6601 73.65V73.66Z" fill="#84A7AD"/>
<path id="Vector_6" d="M73.63 73.62C85.37 78.15 98.33 83.38 109.89 88.31C116.55 90.97 122.62 94.86 129.69 96.32C130.79 96.56 131.86 96.67 132.92 96.52C131.07 101.9 129.27 107.33 128.02 112.88C127.57 114.87 127.21 116.92 127.54 118.93C125.81 118.23 119.97 115.88 118.31 115.2C117.27 114.72 114.36 113.38 113.28 112.87C100.8 107.08 85.6 99.9 73.21 93.9L73.01 93.81V93.6C73.16 88.63 73.43 78.59 73.62 73.62H73.63ZM73.69 73.71C73.73 78.68 73.69 88.65 73.69 93.61L73.5 93.31C81.47 96.94 92.53 101.99 100.33 105.67C104.99 107.8 115.84 113.08 120.4 115.04L127.21 117.87L126.62 118.38C126.3 114.61 127.71 110.95 128.63 107.35C129.68 103.8 130.84 100.3 132.08 96.82L132.45 97.28C128.59 97.3 125.01 95.65 121.45 94.35C106.45 86.8 89.23 80.2 73.68 73.73L73.69 73.71Z" fill="black"/>
</g>
<g id="Group_6">
<path id="Vector_7" d="M76.1601 91.39L73.3501 93.6L73.6601 73.66L122.75 94.51L132.41 96.91L131.36 99.96L125.15 99.32L76.8201 78.54L76.1601 91.39Z" fill="#84A7AD"/>
<path id="Vector_8" d="M76.21 91.41L73.4 93.65L73.28 93.74V93.59L73.49 73.65V73.39C73.58 73.43 122.95 94.14 122.85 94.1L132.53 96.46L133 96.58C132.98 96.74 131.87 99.83 131.81 100.1L131.69 100.45L131.32 100.41L125.1 99.8C112.94 94.72 88.76 84.13 76.72 78.77L77.09 78.54C76.83 82.86 76.49 87.14 76.21 91.4V91.41ZM76.12 91.36C76.28 86.92 76.38 82.52 76.58 78.14L76.94 78.29C89.06 83.3 113.34 93.62 125.36 98.86L125.21 98.82L131.42 99.49L130.93 99.8L132 96.76L132.32 97.34L122.66 94.89C122.69 94.71 72.77 73.9 73.85 73.66L73.44 93.6L73.33 93.54L76.14 91.36H76.12Z" fill="black"/>
</g>
<g id="Group_7">
<path id="Vector_9" d="M127 116.32L119.92 112.66L76.1601 91.4C76.1601 91.4 74.1401 93.04 73.3501 93.61L118.11 114.58L127.04 118.26L127 116.32Z" fill="#84A7AD"/>
<path id="Vector_10" d="M126.96 116.34C112.67 109.08 90.5901 98.85 75.9901 91.74L76.4201 91.69L73.6001 93.93L73.5301 93.21C81.4701 96.87 92.5501 101.94 100.32 105.64C108.16 109.39 119.18 114.83 127.08 118.15L126.94 118.25L126.95 116.33L126.96 116.34ZM127.05 116.29L127.15 118.26V118.41L127 118.35C109.14 111.58 90.4901 102.07 73.1701 93.98L72.5601 93.69L73.11 93.26L75.9101 91.08L76.11 90.92C90.83 98.27 112.69 108.69 127.04 116.29H127.05Z" fill="black"/>
</g>
<g id="Group_8">
<path id="Vector_11" d="M63.9702 90.01C66.4445 90.01 68.4502 88.0042 68.4502 85.53C68.4502 83.0558 66.4445 81.05 63.9702 81.05C61.496 81.05 59.4902 83.0558 59.4902 85.53C59.4902 88.0042 61.496 90.01 63.9702 90.01Z" fill="#84A7AD"/>
<path id="Vector_12" d="M68.1601 87.24C65.5501 92.96 57.3601 89.57 59.4301 83.67C62.0101 77.61 70.6601 81.09 68.1601 87.24ZM68.0701 87.2C69.8101 82.25 62.4201 79.24 60.2101 83.98C58.1101 89.15 65.8901 92.32 68.0701 87.2Z" fill="black"/>
</g>
<g id="Group_9">
<path id="Vector_13" d="M66.41 88.65C66.41 88.65 68.9 92.43 71.51 93.45L74.51 94.07L116.76 112.95C116.76 112.95 115.43 123.92 113.8 125.72C113.8 125.72 112.84 125.89 111.46 121.29V120.17C111.46 120.17 108.77 115.81 96.35 110.28C96.35 110.28 72.76 99.99 68.16 95.9C68.16 95.9 62.49 90.3 66.42 88.64L66.41 88.65Z" fill="#84A7AD"/>
<path id="Vector_14" d="M66.4301 88.6C67.8001 90.47 69.4301 92.45 71.5301 93.36L74.5301 93.96C74.5301 93.95 116.9 112.62 116.91 112.62L117.16 112.73L117.13 113C116.71 116.29 116.24 119.57 115.43 122.79C115.1 123.93 114.88 125 114.12 126.01L114.02 126.14C112.38 126.33 111.45 122.6 111 121.36V121.29V120.17L111.07 120.42C109.67 118.61 107.58 117.12 105.65 115.84C101.57 113.17 97.1101 111.22 92.6501 109.23C84.8801 105.6 77 102.09 69.77 97.43C67.48 96.13 62.4301 90.31 66.4401 88.6H66.4301ZM66.3901 88.7C63.7401 90.04 65.9701 93.13 67.3101 94.67C68.8601 96.55 71.1301 97.61 73.2101 98.8C79.4201 102.12 86.6001 105.35 93.0601 108.26C97.5501 110.22 102.09 112.24 106.19 114.99C108.28 116.43 110.28 117.84 111.85 119.94L111.92 120.04V120.19L111.9 121.31L111.88 121.17C112.37 122.59 112.7 124.24 113.8 125.3C113.79 125.3 113.87 125.3 113.7 125.3L113.45 125.44C115.4 121.73 115.66 117.04 116.37 112.92L116.59 113.3C116.59 113.3 74.3701 94.15 74.4701 94.19L71.4801 93.55C69.3001 92.58 67.7001 90.61 66.3901 88.7Z" fill="black"/>
</g>
<g id="Group_10">
<path id="Vector_15" d="M63.9702 87.5C65.0582 87.5 65.9402 86.618 65.9402 85.53C65.9402 84.442 65.0582 83.56 63.9702 83.56C62.8822 83.56 62.0002 84.442 62.0002 85.53C62.0002 86.618 62.8822 87.5 63.9702 87.5Z" fill="#84A7AD"/>
<path id="Vector_16" d="M65.8301 86.29C64.6001 88.97 60.8402 87.42 61.7502 84.62C62.9702 81.6 67.1901 83.24 65.8301 86.29ZM65.7401 86.25C66.3601 84.42 63.4102 83.22 62.5402 84.94C61.5902 86.96 64.9101 88.37 65.7401 86.25Z" fill="black"/>
</g>
<g id="Group_11">
<path id="Vector_17" d="M61.37 88.36C61.37 88.36 57.74 97.64 59.43 101.8C61.12 105.96 59.84 123.6 59.33 127.88C58.81 132.15 64.8 144.91 72.87 152.59C80.94 160.26 87.91 175 87.91 175C87.91 175 96.27 153.2 101.71 144.55C107.15 135.9 107.1 132.19 99.95 126.12C92.8 120.05 63.89 96.91 65.05 89.87L61.37 88.36Z" fill="#84A7AD"/>
<path id="Vector_18" d="M61.3901 88.41C60.1401 92.08 58.8801 96.08 59.1301 100.01C59.4801 101.93 60.2401 103.86 60.2501 105.88C60.6401 111.87 60.3 117.87 59.9 123.85L59.65 126.84C59.17 129.84 60.35 132.67 61.46 135.4C64.6 142.79 69.5601 149.09 75.2901 154.65C80.6001 160.69 84.67 167.66 88.27 174.82L87.5401 174.85C90.7301 166.62 94.0501 158.45 97.9101 150.48C99.7001 146.5 102.43 142.87 104.17 138.89C106.22 134.46 104.44 130.77 100.99 127.74C94.35 122.05 87.51 116.39 81.05 110.39C76.82 106.23 64.6401 95.67 64.9401 89.85L65.0101 89.97L61.3901 88.41ZM61.3501 88.32L65.09 89.77L65.1701 89.8V89.89C65.0001 96.79 85.8301 113.47 91.5601 118.47C94.93 121.32 98.38 124 101.71 126.98C103.35 128.54 104.94 130.28 105.69 132.49C107.19 137.03 104.15 141.45 101.95 145.17C96.4301 154.65 92.4001 164.96 88.2901 175.14L87.96 175.99L87.56 175.17C84.05 168.08 80.0201 161.08 74.8101 155.09C69.1101 149.49 64.1001 143.05 61.0101 135.6C59.9001 132.86 58.71 129.82 59.23 126.81L59.5001 123.83C59.9001 115.94 61.0801 107.77 58.9201 100.04C58.7401 95.97 59.94 92.11 61.34 88.32H61.3501Z" fill="black"/>
</g>
<g id="Group_12">
<path id="Vector_19" d="M63.3901 94.12C63.3901 94.12 85.7301 120.07 96.8701 127.09C96.8701 127.09 102.82 131.99 101.78 134.26L86.6601 166.3C86.6601 166.3 83.8301 160.88 82.3301 158.81C80.8301 156.74 63.6201 134.12 63.0101 131.51C62.3901 128.9 62.0601 129.44 63.1101 123.59C63.1101 123.59 65.9201 104.67 62.9501 99.87C62.9501 99.87 62.0001 95.34 63.4001 94.11L63.3901 94.12Z" fill="#84A7AD"/>
<path id="Vector_20" d="M63.39 94.07C71.25 102.9 79.19 111.54 87.87 119.53C90.76 122.16 93.74 124.75 97.01 126.86C99.03 128.74 101.63 130.67 102.19 133.55C102.29 134.01 101.95 134.59 101.78 135.01C98.21 142.65 90.33 159.51 86.69 167.3C85.09 164.36 83.56 161.3 81.57 158.61L76 151.21C71.68 145.28 67.12 139.47 63.28 133.19C62.28 131.48 61.78 129.29 62.06 127.34C62.53 124.24 63.1 121.27 63.38 118.17C63.86 113.59 64.24 108.96 63.86 104.36C63.69 102.84 63.52 101.25 62.78 99.91C62.54 98.43 62.38 96.91 62.67 95.42C62.79 94.93 62.92 94.44 63.39 94.06V94.07ZM63.38 94.17C62.25 95.76 62.8 98.04 63.09 99.84C63.84 100.98 64.12 102.83 64.33 104.3C64.82 108.93 64.5 113.61 64.1 118.23C63.88 121.3 63.34 124.41 62.94 127.42C62.72 129.28 63.19 131.1 64.13 132.68C68.05 138.85 72.49 144.68 76.82 150.58L82.34 158.02C84.19 160.56 85.56 163.33 87.04 166.08L86.24 166.1C89.78 158.68 97.75 141.96 101.19 134.73C101.33 134.41 101.62 133.94 101.56 133.57C101.07 131.02 98.42 128.96 96.7 127.32C93.38 125.15 90.43 122.52 87.55 119.85C79 111.8 71.01 103.04 63.36 94.16L63.38 94.17Z" fill="black"/>
</g>
<g id="Group_13">
<path id="Vector_21" d="M95.3002 181.6C95.3002 181.6 93.0902 177 112.08 134.21C112.08 134.21 113.33 132.59 115.65 131.86C117.97 131.13 119.73 130.39 119.48 127.15C119.23 123.91 118.48 122.48 120.75 120.49C120.75 120.49 119.58 119.71 116.08 122.13L119.57 115.87L119.81 115.29L124.73 117.3C124.73 117.3 121.26 121.94 121.23 123.39C121.2 124.84 122.67 129.47 121.48 130.44C120.29 131.41 112.63 135.9 113.01 136.62C113.01 136.62 98.7902 169.03 98.4702 176.07C98.4702 176.07 97.7602 180.49 95.2902 181.6H95.3002Z" fill="#84A7AD"/>
<path id="Vector_22" d="M95.2802 181.65C95.0002 180.55 95.2801 179.54 95.4301 178.46C95.9901 175.35 96.9102 172.32 97.8702 169.31C101.81 157.29 106.78 145.65 111.81 134.05C115.77 129.54 120.41 133.07 118.84 124.59C118.54 123.01 119.18 121.19 120.49 120.21L120.53 120.8C119.87 120.64 119.07 120.93 118.43 121.2C117.26 121.7 115.98 122.69 114.91 123.41C115.42 122.48 118.68 116.59 119.17 115.71L119.41 115.13L119.57 114.74L119.96 114.9L124.89 116.88L125.42 117.09C124.14 118.89 122.75 120.78 121.89 122.74C121.68 123.22 121.69 123.51 121.76 124.02C121.99 125.58 122.38 127.06 122.45 128.68C122.48 129.31 122.4 130.41 121.73 130.9C121.54 131.05 120.95 131.45 120.74 131.59C118.42 133.2 115.51 134.7 113.5 136.66C113.53 136.6 113.54 136.47 113.47 136.36L113.49 136.82C109.5 146.2 104.96 156.48 101.52 166.02C100.63 168.49 99.7802 170.98 99.1302 173.52C98.4302 176.41 98.2602 180.14 95.2602 181.64L95.2802 181.65ZM95.3202 181.55C97.2102 180.47 97.9502 177.99 98.3102 176.06C98.5402 173.41 99.3402 170.86 100.14 168.34C102.56 160.81 105.49 153.46 108.44 146.12C109.76 142.86 111.16 139.64 112.55 136.42L112.57 136.87C112.41 136.53 112.56 136.19 112.76 135.95C114.16 134.51 115.95 133.54 117.59 132.42C118.02 132.14 120.45 130.58 120.82 130.31L121.11 130.1C121.22 130.02 121.19 130 121.25 129.95C122.08 127.67 120.16 124.66 121.01 122.4C121.92 120.4 123.15 118.75 124.38 117.04L124.57 117.73L119.66 115.7L120.21 115.47L119.96 116.05C119.96 116.06 119.95 116.08 119.94 116.09L116.42 122.33L115.85 121.81C117.4 120.85 119.58 119.26 121.4 120.42L120.99 120.78C118.18 122.82 120.47 126.43 119.64 129.2C119.2 130.87 117.46 131.66 115.97 132.09C114.61 132.41 113.04 133.54 112.35 134.33C108.94 142.02 105.55 149.72 102.47 157.55C100.91 161.46 99.4402 165.4 98.1002 169.38C96.9102 173.33 95.2602 177.39 95.3202 181.55Z" fill="black"/>
</g>
<g id="Group_14">
<path id="Vector_23" d="M86.1801 93.95C87.4669 93.95 88.5101 92.9068 88.5101 91.62C88.5101 90.3332 87.4669 89.29 86.1801 89.29C84.8933 89.29 83.8501 90.3332 83.8501 91.62C83.8501 92.9068 84.8933 93.95 86.1801 93.95Z" fill="#84A7AD"/>
<path id="Vector_24" d="M88.3901 92.52C86.9501 95.65 82.5401 93.8 83.6301 90.57C85.0501 87.1 89.9101 89.02 88.3901 92.52ZM88.2901 92.48C89.0901 90.21 85.4501 88.72 84.4101 90.89C83.3001 93.38 87.2501 95.04 88.2901 92.48Z" fill="black"/>
</g>
<g id="Group_15">
<path id="Vector_25" d="M96.9701 98.36C98.2569 98.36 99.3001 97.3168 99.3001 96.03C99.3001 94.7432 98.2569 93.7 96.9701 93.7C95.6833 93.7 94.6401 94.7432 94.6401 96.03C94.6401 97.3168 95.6833 98.36 96.9701 98.36Z" fill="#84A7AD"/>
<path id="Vector_26" d="M99.1801 96.94C97.7401 100.07 93.3302 98.22 94.4202 94.99C95.8402 91.52 100.7 93.44 99.1801 96.94ZM99.0801 96.9C99.8801 94.63 96.2402 93.14 95.2002 95.31C94.0902 97.8 98.0401 99.46 99.0801 96.9Z" fill="black"/>
</g>
<g id="Group_16">
<path id="Vector_27" d="M115.33 90.71C115.33 90.71 121.38 52.91 91.9399 44.3C91.9399 44.3 98.4399 37.17 111.22 33.88C111.22 33.88 120.51 38.58 122.17 87.68L121.31 89.79L124.8 91.67L122.82 93.77L115.33 90.71Z" fill="#84A7AD"/>
<path id="Vector_28" d="M115.29 90.74C117.58 72.13 112.04 50.16 91.8501 44.63L91.3101 44.47C94.0201 41.6 97.2801 39.39 100.73 37.52C104.02 35.77 107.52 34.43 111.12 33.46L111.3 33.41L111.42 33.49C113.07 34.68 113.79 36.21 114.71 37.84C115.99 40.47 116.97 43.29 117.74 46.1C121.35 59.65 122.04 73.73 122.49 87.67V87.74L122.46 87.8L121.57 89.9L121.44 89.53L124.91 91.44L125.21 91.6L124.98 91.84L122.97 93.91L122.87 94.02L122.74 93.96L115.28 90.73L115.29 90.74ZM115.38 90.69L122.9 93.58L122.67 93.63L124.62 91.5L124.69 91.9L121.18 90.06L120.95 89.94L121.05 89.69L121.89 87.57L121.87 87.7C121.42 78.43 120.71 69.18 119.44 59.99C118.33 52.6 117.04 45.1 113.9 38.27C113.19 36.94 112.27 35.16 111.05 34.28L111.36 34.31C107.81 35.22 104.36 36.51 101.11 38.21C97.9 39.91 94.7801 41.98 92.2201 44.54L92.0601 43.98C112.44 49.74 117.97 71.88 115.4 90.69H115.38Z" fill="black"/>
</g>
<g id="Group_17">
<path id="Vector_29" d="M124.81 91.67C124.81 91.67 120.65 93.33 119.18 97.21L116.88 111.06L120.77 112.99C120.77 112.99 123.89 101.04 125.52 97.34C125.52 97.34 125.51 94.08 124.81 91.67Z" fill="#84A7AD"/>
<path id="Vector_30" d="M124.78 91.72C122.47 92.82 120.19 94.92 119.36 97.25L117.25 111.14L117.04 110.72L120.96 112.59L120.32 112.88C121.66 107.57 122.98 102.23 125.19 97.2C125.16 96.13 125.11 93.32 124.78 91.72ZM124.83 91.62C125.51 93.54 125.81 95.48 125.84 97.48C124.28 101.89 122.58 108.55 121.21 113.11L121.05 113.65L120.56 113.4L116.7 111.42L116.44 111.28L116.49 111L118.99 97.18C120.04 94.6 122.27 92.67 124.83 91.62Z" fill="black"/>
</g>
<g id="Group_18">
<path id="Vector_31" d="M114.76 124.44C114.76 124.44 117.71 116.69 115.86 113.52C115.86 113.52 115.93 112.25 116.86 111.07C116.86 111.07 118.66 110.01 119.75 107.88C119.75 107.88 122.12 111.09 119.07 116.91L114.75 124.45L114.76 124.44Z" fill="#84A7AD"/>
<path id="Vector_32" d="M114.74 124.49C114.72 124.26 114.88 123.99 114.93 123.76C115.13 123.11 115.33 122.4 115.5 121.74C116.05 119.17 116.81 116.14 115.61 113.68L115.56 113.6C115.59 113.07 115.72 112.58 115.9 112.11C116.1 111.64 116.33 111.13 116.7 110.78C118.05 109.9 119.07 108.5 119.71 107.04C123.99 113.15 117.77 119.47 114.74 124.5V124.49ZM114.79 124.39C116.32 121.62 117.35 119.02 118.78 116.32C119.96 113.85 120.8 110.62 119.42 108.13L120.13 108.07C119.77 108.74 119.32 109.37 118.8 109.92C118.28 110.47 117.72 110.96 117.04 111.37L117.14 111.29C116.88 111.61 116.66 111.97 116.49 112.36C116.33 112.74 116.2 113.17 116.16 113.55L116.12 113.38C117.56 116.71 116.08 120.56 115.06 123.81L114.94 124.14L114.88 124.3L114.85 124.38C114.85 124.38 114.82 124.38 114.79 124.4V124.39Z" fill="black"/>
</g>
<path id="Vector_33" d="M68.3701 46.36C70.0401 46.22 77.3 52.41 77.3 52.41L85.6801 59.64L93.8801 72.8L92.9301 62.21L82.2001 48.14L82.7201 27.83L71.4001 27L61.3201 35.93L68.36 46.36H68.3701Z" fill="black"/>
<path id="Vector_34" d="M90.89 115.46L78.53 136.66C78.53 136.66 92.62 123.21 95.23 118.26C97.84 113.31 99.31 107.88 99.31 107.88L90.89 115.46Z" fill="black"/>
<path id="Vector_35" d="M117.7 36.48C117.49 36.48 113.16 44.42 113.16 44.42L117.7 42.86V36.48Z" fill="black"/>
</g>
<g id="Group_19" opacity="0.23">
<path id="Vector_36" d="M21.3201 11.11C21.2401 13.84 21.9801 16.68 23.4201 18.97C25.1001 21.63 27.5901 23.16 30.1301 22.87C34.6701 22.35 39.1801 17.15 38.4801 11.11C37.9601 6.63 35.3901 2.43 32.0101 1.51C28.5501 0.569997 24.8101 2.23 22.7501 5.78C21.8401 7.35 21.3701 9.2 21.3101 11.11H21.3201Z" fill="#84A7AD" stroke="black" stroke-width="0.61" stroke-miterlimit="10"/>
<path id="Vector_37" d="M25.4299 20.24L33.4799 84.19L45.3999 82.81L37.5399 20.52C37.5399 20.52 33.0799 26.49 25.4199 20.24H25.4299Z" fill="#84A7AD" stroke="black" stroke-width="0.61" stroke-miterlimit="10"/>
<path id="Vector_38" d="M36.8 86.44L30.46 94.7L42.92 190.4L46.82 182.27L49.8999 170.37L55.96 172.17L47.63 91.48L44.1499 85.59L36.8 86.44Z" fill="#84A7AD" stroke="black" stroke-width="0.61" stroke-miterlimit="10"/>
<path id="Vector_39" d="M33.3673 23.1308C37.91 22.606 41.0274 17.2882 40.3302 11.2532C39.633 5.21821 35.3852 0.751323 30.8425 1.27613C26.2998 1.80093 23.1824 7.1187 23.8796 13.1537C24.5768 19.1887 28.8246 23.6556 33.3673 23.1308Z" fill="#84A7AD" stroke="black" stroke-width="0.61" stroke-miterlimit="10"/>
<path id="Vector_40" d="M33.4753 19.5957C36.5696 19.2383 38.6927 15.6128 38.2173 11.498C37.742 7.38327 34.8482 4.33738 31.7539 4.69486C28.6596 5.05233 26.5365 8.6778 27.0119 12.7926C27.4872 16.9073 30.381 19.9532 33.4753 19.5957Z" fill="#84A7AD" stroke="black" stroke-width="0.61" stroke-miterlimit="10"/>
<path id="Vector_41" d="M33.4041 18.9799C36.2461 18.6515 38.1964 15.3254 37.7603 11.5508C37.3243 7.77622 34.6669 4.98245 31.825 5.31077C28.983 5.63909 27.0327 8.96517 27.4688 12.7398C27.9048 16.5144 30.5622 19.3082 33.4041 18.9799Z" fill="#84A7AD" stroke="black" stroke-width="0.61" stroke-miterlimit="10"/>
<path id="Vector_42" d="M33.2699 17.8176C35.6291 17.545 37.2481 14.7845 36.8862 11.6518C36.5243 8.5191 34.3185 6.20049 31.9593 6.47303C29.6002 6.74557 27.9811 9.50607 28.343 12.6388C28.705 15.7715 30.9108 18.0901 33.2699 17.8176Z" fill="#84A7AD" stroke="black" stroke-width="0.61" stroke-miterlimit="10"/>
<path id="Vector_43" d="M48.45 84.79L49.44 93.33L39.89 94.43L39.21 88.53C39.21 88.53 44.76 85.7 48.46 84.79H48.45Z" fill="#84A7AD" stroke="black" stroke-width="0.61" stroke-miterlimit="10"/>
<path id="Vector_44" d="M29.1799 95.67L28.1299 86.59L40.2199 86.94L41.0699 94.3L29.1799 95.67Z" fill="#84A7AD" stroke="black" stroke-width="0.61" stroke-miterlimit="10"/>
<path id="Vector_45" d="M3.09999 88.99L0.98999 88.2C0.98999 88.2 20.94 74.14 37.89 73.01C37.89 73.01 58.84 71.62 74.55 79.91L73.38 84.58C73.38 84.58 52.42 76.48 40.75 88.35L39.68 88.47C39.68 88.47 19.21 81.97 3.51999 92.65L3.09999 88.99Z" fill="#84A7AD" stroke="black" stroke-width="0.61" stroke-miterlimit="10"/>
<path id="Vector_46" d="M74.5501 79.91C74.5501 79.91 50.4301 71.35 39.0801 73.9L40.7501 88.35C40.7501 88.35 51.7101 79.72 73.3801 84.58L74.5501 79.91Z" fill="#84A7AD" stroke="black" stroke-width="0.61" stroke-miterlimit="10"/>
<path id="Vector_47" d="M38.0001 73.93L39.6801 88.47C39.6801 88.47 20.5601 82.84 3.5201 92.65L3.1001 88.99C3.1001 88.99 21.2301 76.6 38.0001 73.93Z" fill="#84A7AD" stroke="black" stroke-width="0.61" stroke-miterlimit="10"/>
<path id="Vector_48" d="M3.51999 92.65L1.46999 92.32L0.98999 88.2L3.09999 88.99L3.51999 92.65Z" fill="#84A7AD" stroke="black" stroke-width="0.61" stroke-miterlimit="10"/>
</g>
</g>
</svg>
