<svg width="67" height="67" viewBox="0 0 67 67" fill="none" xmlns="http://www.w3.org/2000/svg">
<g id="Layer_1" clip-path="url(#clip0_194_2623)">
<g id="Group">
<path id="Vector" d="M33.5 64.7654C16.2584 64.7654 2.2345 50.7416 2.2345 33.5C2.2345 16.2584 16.2584 2.2345 33.5 2.2345C50.7416 2.2345 64.7654 16.2584 64.7654 33.5C64.7654 50.7416 50.7416 64.7654 33.5 64.7654Z" fill="#595959"/>
<path id="Vector_2" d="M33.5 4.46905C49.535 4.46905 62.5309 17.465 62.5309 33.5C62.5309 49.535 49.535 62.5309 33.5 62.5309C17.465 62.5309 4.46905 49.535 4.46905 33.5C4.46905 17.465 17.465 4.46905 33.5 4.46905ZM33.5 0C15.0249 0 0 15.0249 0 33.5C0 51.9751 15.0249 67 33.5 67C51.9751 67 67 51.9751 67 33.5C67 15.0249 51.9751 0 33.5 0Z" fill="black"/>
</g>
<path id="Vector_3" d="M46.2636 28.3248H44.5117V18.6449C44.5117 14.3725 41.0348 10.9045 36.7713 10.9045H30.2286C25.9562 10.9045 22.4882 14.3814 22.4882 18.6449V28.3248H20.7364C18.7968 28.3248 17.2237 29.8979 17.2237 31.8375V49.2489C17.2237 51.1885 18.7968 52.7616 20.7364 52.7616H46.2636C48.2031 52.7616 49.7763 51.1885 49.7763 49.2489V31.8375C49.7763 29.8979 48.2031 28.3248 46.2636 28.3248ZM33.5 50.4377H30.1482L31.5872 42.8582C31.0152 42.3398 30.6487 41.5979 30.6487 40.7577C30.6487 39.1846 31.9269 37.9154 33.491 37.9154C35.0552 37.9154 36.3334 39.1936 36.3334 40.7577C36.3334 41.589 35.9669 42.3308 35.3948 42.8582L36.8339 50.4377H33.4821H33.5ZM40.2661 28.3248H26.7338V18.6449C26.7338 16.7142 28.298 15.1501 30.2286 15.1501H36.7713C38.7019 15.1501 40.2661 16.7142 40.2661 18.6449V28.3248Z" fill="black"/>
</g>
<defs>
<clipPath id="clip0_194_2623">
<rect width="67" height="67" fill="white"/>
</clipPath>
</defs>
</svg>
